<?xml version="1.0" encoding="utf-8"?>
<!-- Generator: Adobe Illustrator 23.0.0, SVG Export Plug-In . SVG Version: 6.00 Build 0)  -->
<svg version="1.1" id="Layer_1" xmlns="http://www.w3.org/2000/svg" xmlns:xlink="http://www.w3.org/1999/xlink" x="0px" y="0px"
	 viewBox="0 0 809 292.1" style="enable-background:new 0 0 809 292.1;" xml:space="preserve">
<style type="text/css">
	.st0{fill-rule:evenodd;clip-rule:evenodd;}
</style>
<g>
	<polygon points="68.2,222.1 68.2,255.4 31.4,255.4 31.4,218.9 17.9,222.1 17.9,255.4 1.1,255.4 4.4,268.9 17.9,268.9 17.9,291.9 
		31.4,291.9 31.4,268.9 68.2,268.9 68.2,291.9 81.7,291.9 81.7,218.9 	"/>
</g>
<g>
	<polygon points="443.3,218.9 383.6,218.9 386.8,232.4 406.7,232.4 406.7,292.1 420.2,292.1 420.2,232.4 443.3,232.4 	"/>
</g>
<g>
	<path d="M227.8,293.5c-21,0-38.1-17.1-38.1-38.1c0-21,17.1-38.1,38.1-38.1s38.1,17.1,38.1,38.1
		C265.8,276.5,248.8,293.5,227.8,293.5z M227.8,230.9c-13.5,0-24.5,11-24.5,24.5s11,24.6,24.5,24.6c13.5,0,24.5-11,24.5-24.6
		S241.3,230.9,227.8,230.9z"/>
</g>
<g>
	<g>
		<polygon points="632.1,232.4 571.9,232.4 568.7,218.9 632.1,218.9 		"/>
	</g>
	<g>
		<polygon points="631.9,292.1 571.9,292.1 568.7,278.6 631.9,278.6 		"/>
	</g>
	<g>
		<polygon points="618.8,262.3 571.9,262.3 568.7,248.7 618.8,248.7 		"/>
	</g>
</g>
<g>
	<polygon points="809,261.9 795.5,261.9 795.5,278.5 758.7,278.5 758.7,218.9 745.2,222.1 745.2,292.1 809,292.1 	"/>
</g>
<g>
	<g>
		<path class="st0" d="M425.2,56.9h20.1l3.5-23.6h-70.9l3.5,23.6h20.1v8.7H354l3.5,23.6h44.9c-0.2,2.3-0.2,5.1-0.5,8.4
			c-0.5,6.1,2.1,13.5,2.5,19.6c0.3,4.2-0.1,5.4,0.1,8.9c0.2,3-0.1,10.1,0,13.6c0,0.9,0.5,0.8,0.7,0.6c0.3-0.2,0.3-14.4,1.2-15.8
			c1.5-2.1,0.6,4.4,0.6,8.8c0.1,4.5-1.9,8.7-2,9.5c-0.4,3.4-0.2,3.8,0.6,9.1c0.5,3.2-1,1.9-0.4,4c0.2,0.8,1.8,2.6,1.9,3.5
			c0.4,3.9,0.6,4.5,0.8,8.6c0.2,3.5-1.1,4.7-0.9,8.3c0.1,1.1,1.1,5.6,1.3,6.6c0.4,2.3,0.3,2.2,0.3,4.4c0.1,3.9-2.7,4-0.4,6
			c1.5,1.3,0.7,1.5,3.9,2c0.8,0.1,1.2,0,1.5-0.1c0.6-0.4,0.7-0.3,1.1-0.3c0.4,0,1-0.6,1.2-1.1c0.2-0.4,0.6-0.4,0.9-0.6
			c0.4-0.4,0.9-0.9,0.7-2.1c-0.4-2.7-0.5-6.2,1-13.6c0.3-1.5,0.7-6.9,0.7-8.5c0-6.7,0.8-5.6,1.2-9.8c0.1-0.5-0.1-1.1,0-1.6
			c0.2-1.4,0.9-2.8,0.9-3.7c0-0.8-0.6-1.4-0.6-2.3c0-2.3,0.9-4,0.4-7.1c-0.1-0.5,0.9-1.6,0-2.3c-0.3-0.3-1.3,1.3-1.2-0.3
			c0-0.3-0.5-0.9-0.2-1.2c1.3-1.3-0.3-1.7-0.4-2.9c-0.1-0.7,0.4-2.1,0.4-2.2c0.2-1.3-0.3-1.7-0.1-2.8c0.1-0.7-0.5-0.9-0.8-0.9
			c-0.4,0-0.6,1.7-0.6,3.2c0,1.1-0.1,2.1-0.1,2.5c0,0.4,0,0.8,0,1.3c0,0.3-0.1,2.2-0.1,4.7c0,0.6,1,7.2,0.4,6.9
			c-0.3-0.1-0.2-1.7-0.4-3.5c-0.2-1.4,0.2-2.8-0.2-2.8c-1,0-0.3,2.7-0.3,4c0,3.7,0.6,4,0.6,4.7c0,0.6-0.2,0.5-0.5,0.6
			c-0.4,0.2,0,1-0.5,1.1c-0.7,0.1-0.5-15.8-0.6-16.2c-0.1-0.6-0.7-0.6-0.6-1.3c0.1-0.5,0.9-0.7,0.9-1c0-0.4-1.5-0.2-1.1-0.9
			c0.5-0.8,1.3,0.9,1.5-1.6c0.1-1.1-0.8-2-0.6-2.5c0.1-0.5-1.6-1.1-1.6-1.4c-0.1-0.8,1.3,0.6,1.6-0.4c0.3-0.8-0.2-1.4,0.2-1.6
			c0.3-0.2,0-0.7,0.9-0.8c0.5-0.1,0.5,0.1,1.1,1.3c0.2,0.3-0.4,1.9,1,2.8c0.5,0.4,0.8,1.7,0.9,2c0.2,0.9-0.1,1.1-0.2,1.9
			c0,1.8,0.7,1.2,0.7,2.4c0,0.6-0.6,3.9,0.1,4c0.4,0,1.1-3.1,1.3-8.8c0-0.5,0.9-1.9,0.9-2.4c0.1-0.6-0.4-1.2-0.2-1.8
			c1.2-3.8,1.2-6.9,0.9-8c-0.3-1.2-2.4-2.6-2.4-3.2c0-1.1,1.3,1.3,1.3-3.5c0.1-8.4,0.5-9.1,0.5-9.1l0.6-2.9c0,0-0.9-2.5-0.6-4.1
			c1-3.6,1.3-6.3,1.1-8.4h44.4l3.5-23.6h-47.6V56.9z"/>
	</g>
	<g>
		<polygon class="st0" points="469.2,24.5 472.7,0.9 354,0.9 357.5,24.5 		"/>
	</g>
</g>
</svg>
